<svg width="381" height="382" viewBox="0 0 381 382" fill="none" xmlns="http://www.w3.org/2000/svg">
<path d="M114.84 24.352L117.616 38.5977L115.801 39.5298L107.793 31.0298L109.93 42.5453L108.143 43.486L98.295 32.8504L100.021 31.964L108.126 41.089L105.714 29.0398L107.528 28.1078L115.757 37.1241L113.097 25.2476L114.84 24.352Z" fill="white"/>
<path d="M130.223 26.9566C130.351 27.2789 130.467 27.6271 130.573 28.0012L122.43 31.2318C122.89 32.2111 123.544 32.8628 124.389 33.1871C125.243 33.494 126.116 33.4705 127.008 33.1164C127.739 32.8263 128.28 32.4181 128.631 31.8917C128.989 31.348 129.154 30.7517 129.126 30.1029L130.948 29.3801C131.064 30.4674 130.835 31.4831 130.263 32.4273C129.686 33.3591 128.79 34.066 127.576 34.5479C126.609 34.9314 125.656 35.0587 124.715 34.9298C123.787 34.796 122.949 34.4185 122.2 33.7974C121.447 33.164 120.861 32.3205 120.443 31.2671C120.025 30.2136 119.87 29.2067 119.976 28.2464C120.083 27.286 120.431 26.4451 121.019 25.7238C121.616 24.9852 122.41 24.4192 123.401 24.0258C124.368 23.6423 125.307 23.5137 126.217 23.64C127.128 23.7664 127.929 24.1227 128.621 24.7089C129.32 25.2779 129.854 26.0271 130.223 26.9566ZM128.335 27.2967C128.08 26.6523 127.718 26.1573 127.251 25.8119C126.779 25.454 126.249 25.2557 125.66 25.2169C125.078 25.1608 124.49 25.2507 123.895 25.4868C123.04 25.826 122.416 26.3888 122.026 27.1751C121.647 27.9564 121.606 28.8476 121.903 29.8487L128.335 27.2967Z" fill="white"/>
<path d="M133.95 22.5097C134.115 21.7755 134.48 21.1049 135.047 20.498C135.613 19.891 136.336 19.4522 137.215 19.1815C138.158 18.8911 139.074 18.8532 139.963 19.0677C140.853 19.2821 141.639 19.7305 142.324 20.4126C143.004 21.082 143.509 21.9519 143.839 23.0223C144.165 24.0799 144.238 25.0896 144.06 26.0513C143.882 27.013 143.481 27.841 142.858 28.5351C142.247 29.2254 141.477 29.7137 140.547 30.0002C139.642 30.2788 138.785 30.3265 137.975 30.1434C137.178 29.9563 136.513 29.6099 135.981 29.1042L136.575 31.0347L134.836 31.5703L130.48 17.4257L132.22 16.8901L133.95 22.5097ZM142.061 23.5697C141.818 22.7796 141.447 22.1405 140.948 21.6525C140.449 21.1644 139.878 20.8518 139.236 20.7147C138.607 20.5737 137.967 20.6032 137.317 20.8033C136.68 20.9995 136.136 21.3413 135.687 21.8286C135.246 22.2992 134.952 22.885 134.805 23.5859C134.667 24.2702 134.717 25.001 134.957 25.7783C135.2 26.5684 135.573 27.2138 136.076 27.7146C136.588 28.1988 137.16 28.5177 137.794 28.6715C138.436 28.8086 139.075 28.7791 139.713 28.5829C140.363 28.3827 140.908 28.0474 141.349 27.5767C141.799 27.0894 142.093 26.5036 142.231 25.8194C142.365 25.1224 142.308 24.3725 142.061 23.5697Z" fill="white"/>
<path d="M153.747 12.131C155.24 11.8462 156.584 11.8818 157.778 12.2376C158.983 12.5778 159.973 13.2103 160.746 14.1351C161.533 15.0574 162.06 16.2192 162.327 17.6206C162.595 19.022 162.532 20.2963 162.14 21.4434C161.759 22.5749 161.071 23.5206 160.075 24.2805C159.091 25.0248 157.852 25.5394 156.359 25.8242L152.096 26.6373L149.484 12.9442L153.747 12.131ZM156.078 24.3507C157.846 24.0135 159.106 23.2912 159.859 22.184C160.609 21.0636 160.823 19.6586 160.5 17.9691C160.176 16.2665 159.451 15.027 158.325 14.2508C157.213 13.4721 155.779 13.2501 154.024 13.5848L151.549 14.057L153.602 24.8229L156.078 24.3507Z" fill="white"/>
<path d="M175.648 17.1281C175.685 17.4727 175.705 17.8394 175.707 18.2281L166.998 19.1719C167.18 20.2384 167.636 21.0406 168.365 21.5786C169.105 22.1018 169.953 22.3117 170.907 22.2083C171.69 22.1236 172.32 21.8742 172.798 21.4603C173.288 21.0317 173.606 20.501 173.752 19.8683L175.7 19.6571C175.522 20.7359 175.032 21.6541 174.229 22.4117C173.424 23.156 172.372 23.5986 171.073 23.7394C170.039 23.8514 169.086 23.72 168.214 23.3451C167.355 22.9687 166.648 22.3815 166.092 21.5834C165.535 20.7721 165.195 19.8031 165.073 18.6763C164.951 17.5496 165.069 16.5376 165.428 15.6404C165.787 14.7432 166.346 14.0254 167.106 13.4871C167.877 12.9341 168.793 12.6001 169.854 12.4852C170.888 12.3732 171.827 12.4994 172.671 12.8639C173.515 13.2285 174.192 13.7854 174.703 14.5348C175.225 15.2695 175.54 16.1339 175.648 17.1281ZM173.738 16.9528C173.663 16.2635 173.447 15.6902 173.089 15.2327C172.729 14.7621 172.271 14.4295 171.713 14.2351C171.167 14.026 170.576 13.9559 169.94 14.0249C169.026 14.124 168.275 14.5004 167.689 15.154C167.116 15.8062 166.839 16.6543 166.858 17.6983L173.738 16.9528Z" fill="white"/>
<path d="M182.531 21.0163L185.57 11.612L187.509 11.5371L183.635 22.6549L181.516 22.7367L176.797 11.9507L178.755 11.8751L182.531 21.0163Z" fill="white"/>
<path d="M201.42 16.9796C201.407 17.326 201.372 17.6916 201.318 18.0764L192.564 17.7384C192.589 18.8202 192.923 19.6804 193.565 20.319C194.222 20.9448 195.029 21.2762 195.989 21.3132C196.775 21.3436 197.435 21.1889 197.968 20.8493C198.515 20.4968 198.908 20.0182 199.144 19.4136L201.103 19.4892C200.769 20.5304 200.15 21.3671 199.245 21.9994C198.34 22.6183 197.235 22.9025 195.929 22.8521C194.89 22.812 193.966 22.5428 193.158 22.0446C192.364 21.5469 191.75 20.8627 191.316 19.992C190.883 19.1079 190.689 18.0997 190.732 16.9672C190.776 15.8347 191.041 14.8508 191.527 14.0156C192.013 13.1804 192.671 12.552 193.501 12.1304C194.345 11.696 195.3 11.4994 196.366 11.5405C197.405 11.5806 198.316 11.8426 199.098 12.3265C199.88 12.8104 200.468 13.4602 200.864 14.2761C201.273 15.0791 201.459 15.9803 201.42 16.9796ZM199.556 16.5273C199.583 15.8345 199.452 15.2357 199.165 14.7309C198.878 14.2128 198.473 13.8168 197.95 13.5431C197.441 13.2566 196.866 13.101 196.227 13.0763C195.307 13.0408 194.51 13.3035 193.835 13.8646C193.172 14.4261 192.775 15.2247 192.641 16.2603L199.556 16.5273Z" fill="white"/>
<path d="M206.792 8.5543L205.481 23.2961L203.669 23.1349L204.98 8.39307L206.792 8.5543Z" fill="white"/>
<path d="M212.742 24.3212C211.725 24.1792 210.833 23.8191 210.066 23.2408C209.312 22.6644 208.756 21.9204 208.398 21.0089C208.056 20.0861 207.963 19.0634 208.12 17.9409C208.275 16.8317 208.649 15.8877 209.242 15.1089C209.85 14.3187 210.602 13.7572 211.496 13.4244C212.393 13.0783 213.356 12.9771 214.386 13.1209C215.416 13.2647 216.315 13.6257 217.082 14.204C217.852 14.7691 218.415 15.5074 218.772 16.4189C219.143 17.3322 219.25 18.3501 219.093 19.4726C218.937 20.595 218.548 21.5504 217.926 22.3387C217.319 23.1157 216.561 23.6762 215.652 24.0205C214.742 24.3647 213.772 24.4649 212.742 24.3212ZM212.963 22.7365C213.61 22.8268 214.239 22.7598 214.849 22.5353C215.459 22.3108 215.979 21.9188 216.407 21.3593C216.848 20.8016 217.13 20.087 217.251 19.2155C217.373 18.3439 217.304 17.5804 217.046 16.9251C216.787 16.2697 216.401 15.7581 215.887 15.3901C215.375 15.009 214.795 14.7733 214.148 14.683C213.488 14.5908 212.859 14.6579 212.262 14.8842C211.68 15.0992 211.182 15.4873 210.767 16.0487C210.352 16.61 210.084 17.3265 209.962 18.1981C209.838 19.0828 209.893 19.851 210.125 20.5027C210.37 21.1562 210.742 21.6726 211.241 22.0519C211.742 22.418 212.316 22.6462 212.963 22.7365Z" fill="white"/>
<path d="M223.84 16.8923C224.326 16.3569 224.958 15.9628 225.737 15.7099C226.531 15.4468 227.391 15.4164 228.316 15.6185C229.266 15.8264 230.076 16.2422 230.745 16.8661C231.427 17.4929 231.898 18.2715 232.159 19.2019C232.423 20.1193 232.435 21.1251 232.196 22.2193C231.959 23.3004 231.527 24.216 230.899 24.9658C230.271 25.7157 229.515 26.2397 228.631 26.5378C227.76 26.8387 226.849 26.8853 225.898 26.6774C224.987 26.4781 224.223 26.0997 223.608 25.5421C223.009 24.9744 222.594 24.3446 222.363 23.6527L220.821 30.7061L219.043 30.3175L222.494 14.5302L224.272 14.9189L223.84 16.8923ZM230.378 21.8221C230.555 21.0145 230.546 20.2755 230.351 19.6052C230.157 18.9348 229.813 18.3821 229.322 17.947C228.843 17.5148 228.271 17.2261 227.607 17.0809C226.956 16.9386 226.314 16.969 225.683 17.1722C225.068 17.3653 224.524 17.7309 224.051 18.2691C223.595 18.7971 223.279 19.4584 223.106 20.2529C222.929 21.0605 222.937 21.806 223.129 22.4894C223.336 23.1626 223.678 23.7218 224.154 24.1671C224.646 24.6021 225.217 24.8908 225.869 25.0332C226.533 25.1784 227.173 25.1545 227.788 24.9614C228.42 24.7582 228.964 24.3926 229.42 23.8646C229.88 23.3236 230.199 22.6427 230.378 21.8221Z" fill="white"/>
<path d="M249.477 21.6095C250.287 21.8759 250.953 22.2843 251.474 22.8344C251.999 23.372 252.335 24.0367 252.482 24.8288C252.628 25.6209 252.543 26.4983 252.227 27.4609L250.21 33.5979L248.5 33.0358L250.436 27.1458C250.777 26.1072 250.778 25.2301 250.438 24.5148C250.114 23.7909 249.515 23.2853 248.641 22.998C247.742 22.7024 246.931 22.7585 246.207 23.1663C245.488 23.5614 244.949 24.3036 244.591 25.3929L242.705 31.1309L240.995 30.5688L242.931 24.6788C243.272 23.6402 243.273 22.7632 242.933 22.0478C242.609 21.3239 242.01 20.8183 241.136 20.531C240.237 20.2354 239.426 20.2915 238.702 20.6993C237.983 21.0944 237.444 21.8366 237.086 22.926L235.2 28.6639L233.471 28.0956L236.893 17.6837L238.622 18.252L238.129 19.753C238.65 19.3207 239.243 19.0526 239.909 18.9487C240.588 18.8489 241.275 18.9135 241.972 19.1425C242.846 19.4298 243.554 19.8801 244.096 20.4934C244.638 21.1068 244.949 21.8476 245.029 22.7158C245.562 22.0769 246.23 21.6651 247.035 21.4805C247.839 21.2958 248.653 21.3388 249.477 21.6095Z" fill="white"/>
<path d="M264.105 33.3207C263.965 33.6379 263.799 33.9654 263.607 34.3031L255.591 30.7706C255.216 31.7858 255.21 32.7084 255.573 33.5385C255.953 34.3618 256.583 34.967 257.461 35.3541C258.181 35.6713 258.851 35.77 259.472 35.6503C260.111 35.5237 260.652 35.2228 261.094 34.7476L262.888 35.538C262.195 36.3836 261.311 36.934 260.237 37.1892C259.168 37.4322 258.036 37.2902 256.84 36.7633C255.888 36.3439 255.128 35.754 254.56 34.9937C254.004 34.2386 253.684 33.3766 253.602 32.4075C253.524 31.4263 253.714 30.4171 254.171 29.38C254.628 28.3429 255.236 27.5253 255.995 26.9273C256.754 26.3292 257.597 25.9867 258.524 25.8999C259.468 25.8062 260.429 25.9744 261.405 26.4045C262.357 26.8239 263.107 27.4023 263.656 28.1398C264.206 28.8772 264.514 29.698 264.582 30.6021C264.667 31.4994 264.509 32.4056 264.105 33.3207ZM262.538 32.2148C262.818 31.5804 262.917 30.9756 262.835 30.4005C262.759 29.8132 262.528 29.2961 262.142 28.8492C261.773 28.3955 261.296 28.0396 260.711 27.7815C259.869 27.4105 259.031 27.3617 258.196 27.6351C257.374 27.9139 256.71 28.5103 256.206 29.4244L262.538 32.2148Z" fill="white"/>
<path d="M273.823 32.4081C275 33.0348 275.762 33.9013 276.109 35.0078C276.463 36.1024 276.282 37.3206 275.568 38.6622L272.532 44.3641L270.943 43.5181L273.857 38.0457C274.371 37.0806 274.521 36.2166 274.308 35.4536C274.101 34.6789 273.58 34.069 272.745 33.6241C271.897 33.1728 271.08 33.0773 270.292 33.3374C269.515 33.6038 268.858 34.243 268.319 35.2551L265.47 40.604L263.864 39.7486L269.015 30.0747L270.622 30.9302L269.889 32.3071C270.47 31.982 271.103 31.8283 271.788 31.8459C272.486 31.8697 273.164 32.0571 273.823 32.4081Z" fill="white"/>
<path d="M281.463 38.7158L278.096 44.2288C277.818 44.6839 277.716 45.0673 277.792 45.3789C277.874 45.6791 278.154 45.9751 278.632 46.267L279.776 46.9655L278.973 48.2797L277.573 47.4249C276.708 46.8967 276.181 46.3015 275.992 45.6391C275.803 44.9768 275.987 44.1904 276.543 43.2801L279.91 37.7671L278.698 37.027L279.48 35.7469L280.692 36.487L282.13 34.1316L283.683 35.0802L282.245 37.4356L284.686 38.9264L283.904 40.2065L281.463 38.7158Z" fill="white"/>
<path d="M110 346.5C70.4005 324.763 53.2446 307.57 32 267.5" stroke="#5BB653" stroke-width="5"/>
<path d="M34 110.5C51.1528 78.4496 65.4849 63.0624 99 40" stroke="#5BB653" stroke-width="5"/>
<path d="M355.384 114.981L347.3 118.507C346.163 119.003 345.44 119.646 345.13 120.436C344.825 121.238 344.889 122.134 345.321 123.124C345.747 124.101 346.355 124.745 347.145 125.055C347.94 125.378 348.906 125.291 350.043 124.795L358.127 121.268L358.855 122.937L350.789 126.455C349.726 126.919 348.734 127.097 347.814 126.989C346.906 126.876 346.116 126.53 345.441 125.951C344.772 125.385 344.241 124.649 343.846 123.745C343.452 122.841 343.272 121.945 343.306 121.057C343.346 120.181 343.633 119.372 344.168 118.63C344.72 117.894 345.527 117.295 346.59 116.831L354.656 113.312L355.384 114.981Z" fill="white"/>
<path d="M360.76 128.059L347.708 132.956L347.069 131.252L360.12 126.355L360.76 128.059Z" fill="white"/>
<path d="M368.794 136.497L345.949 138.15L345.393 136.438L368.233 134.766L368.794 136.497Z" fill="white"/>
<path d="M365.61 143.122L357.055 145.267C355.852 145.568 355.033 146.083 354.596 146.811C354.164 147.552 354.079 148.446 354.341 149.494C354.601 150.528 355.094 151.264 355.822 151.7C356.553 152.149 357.52 152.222 358.723 151.921L367.278 149.776L367.721 151.541L359.185 153.681C358.06 153.963 357.053 153.975 356.163 153.717C355.287 153.456 354.563 152.984 353.994 152.302C353.427 151.633 353.024 150.82 352.784 149.863C352.544 148.906 352.515 147.993 352.695 147.123C352.879 146.266 353.296 145.515 353.945 144.871C354.611 144.237 355.506 143.779 356.632 143.497L365.167 141.356L365.61 143.122Z" fill="white"/>
<path d="M362.59 162.121L356.451 167.513L356.103 165.482L360.903 161.273L355.005 159.056L354.664 157.065L362.242 160.091L368.401 154.695L368.745 156.706L363.93 160.938L369.851 163.172L370.195 165.183L362.59 162.121Z" fill="white"/>
<path d="M371.491 178.033C371.585 179.55 371.38 180.878 370.876 182.018C370.386 183.171 369.634 184.072 368.619 184.723C367.604 185.387 366.385 185.763 364.961 185.851C363.537 185.939 362.281 185.716 361.193 185.182C360.119 184.66 359.268 183.858 358.64 182.775C358.026 181.704 357.672 180.41 357.578 178.893L357.31 174.561L371.224 173.701L371.491 178.033ZM359.075 178.8C359.186 180.597 359.743 181.938 360.747 182.825C361.763 183.71 363.13 184.1 364.847 183.994C366.577 183.887 367.898 183.325 368.81 182.306C369.723 181.301 370.124 179.907 370.014 178.124L369.859 175.609L358.92 176.285L359.075 178.8Z" fill="white"/>
<path d="M363.736 200.138C363.389 200.13 363.023 200.102 362.637 200.053L362.84 191.295C361.759 191.337 360.904 191.684 360.275 192.336C359.66 193.002 359.341 193.815 359.319 194.774C359.301 195.561 359.465 196.218 359.813 196.746C360.174 197.288 360.659 197.673 361.267 197.9L361.221 199.86C360.175 199.542 359.329 198.936 358.683 198.041C358.05 197.146 357.749 196.045 357.779 194.739C357.803 193.699 358.058 192.771 358.544 191.956C359.029 191.153 359.704 190.529 360.568 190.082C361.445 189.636 362.45 189.426 363.583 189.452C364.716 189.478 365.704 189.728 366.547 190.201C367.389 190.674 368.028 191.322 368.462 192.146C368.909 192.983 369.121 193.935 369.096 195.001C369.072 196.041 368.824 196.955 368.352 197.744C367.881 198.534 367.24 199.132 366.43 199.54C365.634 199.962 364.735 200.161 363.736 200.138ZM364.159 198.268C364.852 198.284 365.449 198.144 365.949 197.849C366.463 197.554 366.853 197.143 367.118 196.616C367.397 196.102 367.544 195.525 367.558 194.885C367.58 193.966 367.305 193.172 366.733 192.506C366.162 191.852 365.357 191.467 364.319 191.349L364.159 198.268Z" fill="white"/>
<path d="M357.165 205.93C357.24 205.093 357.446 204.355 357.784 203.716C358.135 203.078 358.58 202.589 359.119 202.249C359.671 201.91 360.281 201.75 360.949 201.769L360.782 203.641C360.233 203.646 359.766 203.859 359.38 204.28C358.994 204.714 358.767 205.303 358.701 206.046C358.64 206.737 358.744 207.295 359.014 207.721C359.284 208.146 359.651 208.38 360.116 208.421C360.594 208.464 360.965 208.283 361.229 207.878C361.506 207.474 361.797 206.837 362.101 205.967C362.386 205.176 362.658 204.531 362.916 204.032C363.187 203.547 363.551 203.138 364.009 202.804C364.479 202.484 365.066 202.356 365.77 202.418C366.328 202.468 366.825 202.68 367.26 203.053C367.695 203.426 368.019 203.93 368.23 204.565C368.454 205.2 368.532 205.91 368.462 206.694C368.355 207.902 367.962 208.851 367.285 209.541C366.608 210.23 365.736 210.554 364.669 210.513L364.83 208.7C365.405 208.711 365.884 208.519 366.267 208.125C366.649 207.744 366.871 207.201 366.933 206.498C366.991 205.847 366.898 205.316 366.653 204.906C366.409 204.497 366.061 204.271 365.609 204.231C365.25 204.199 364.942 204.286 364.682 204.49C364.435 204.709 364.223 204.985 364.047 205.317C363.882 205.664 363.686 206.142 363.457 206.751C363.175 207.515 362.906 208.134 362.65 208.606C362.407 209.08 362.064 209.471 361.622 209.78C361.178 210.102 360.624 210.24 359.959 210.194C359.361 210.141 358.838 209.927 358.389 209.553C357.941 209.178 357.604 208.673 357.38 208.037C357.167 207.416 357.096 206.714 357.165 205.93Z" fill="white"/>
<path d="M369.103 215.423C369.15 215.08 369.308 214.805 369.578 214.6C369.849 214.394 370.155 214.315 370.499 214.361C370.842 214.408 371.117 214.566 371.323 214.836C371.528 215.106 371.608 215.413 371.561 215.757C371.516 216.087 371.36 216.348 371.091 216.541C370.821 216.746 370.514 216.826 370.171 216.779C369.827 216.733 369.553 216.574 369.347 216.304C369.14 216.047 369.059 215.754 369.103 215.423ZM367.221 216.056L356.361 214.583L356.605 212.779L367.466 214.253L367.221 216.056Z" fill="white"/>
<path d="M366.015 224.5C365.834 225.429 365.473 226.201 364.932 226.816C364.389 227.444 363.776 227.868 363.095 228.088L365.058 228.471L364.706 230.277L353.713 228.136C352.731 227.945 351.902 227.566 351.224 227C350.534 226.431 350.049 225.711 349.77 224.842C349.488 223.986 349.448 223.041 349.649 222.007C349.925 220.593 350.488 219.48 351.339 218.668C352.19 217.856 353.207 217.477 354.392 217.531L354.048 219.297C353.356 219.366 352.753 219.67 352.241 220.209C351.715 220.745 351.369 221.445 351.2 222.309C351.009 223.29 351.161 224.148 351.657 224.883C352.149 225.631 352.952 226.114 354.065 226.33L356.322 226.77C355.763 226.294 355.341 225.669 355.057 224.893C354.774 224.118 354.722 223.266 354.903 222.337C355.089 221.381 355.494 220.557 356.118 219.864C356.74 219.183 357.519 218.703 358.457 218.424C359.394 218.144 360.406 218.111 361.492 218.322C362.591 218.536 363.51 218.946 364.248 219.551C364.999 220.159 365.528 220.894 365.836 221.756C366.141 222.63 366.201 223.545 366.015 224.5ZM359.699 227.427C360.51 227.585 361.249 227.559 361.915 227.349C362.58 227.139 363.125 226.783 363.549 226.282C363.983 225.796 364.265 225.219 364.395 224.552C364.525 223.884 364.486 223.245 364.279 222.634C364.072 222.023 363.699 221.496 363.161 221.051C362.623 220.607 361.948 220.306 361.136 220.148C360.312 219.987 359.56 220.011 358.881 220.218C358.216 220.428 357.666 220.776 357.232 221.262C356.81 221.751 356.535 222.329 356.405 222.996C356.275 223.663 356.314 224.303 356.521 224.913C356.738 225.54 357.116 226.075 357.655 226.52C358.206 226.967 358.887 227.269 359.699 227.427Z" fill="white"/>
<path d="M362.68 238.915C362.326 240.201 361.648 241.134 360.644 241.716C359.654 242.3 358.426 242.391 356.96 241.988L350.732 240.275L351.209 238.539L357.187 240.184C358.241 240.474 359.117 240.431 359.815 240.056C360.525 239.685 361.006 239.042 361.257 238.13C361.512 237.204 361.426 236.385 361 235.673C360.57 234.974 359.802 234.473 358.696 234.169L352.853 232.561L353.336 230.807L363.903 233.713L363.421 235.468L361.917 235.054C362.361 235.55 362.65 236.134 362.783 236.807C362.912 237.492 362.878 238.195 362.68 238.915Z" fill="white"/>
<path d="M361.542 248.075C361.652 247.746 361.858 247.505 362.162 247.353C362.465 247.202 362.781 247.18 363.11 247.29C363.439 247.399 363.68 247.606 363.831 247.909C363.983 248.213 364.005 248.529 363.895 248.858C363.79 249.174 363.588 249.402 363.288 249.541C362.985 249.693 362.668 249.714 362.34 249.605C362.011 249.495 361.77 249.289 361.618 248.985C361.462 248.695 361.437 248.391 361.542 248.075ZM359.575 248.347L349.176 244.886L349.751 243.159L360.15 246.621L359.575 248.347Z" fill="white"/>
<path d="M357.025 255.946C356.543 257.189 355.773 258.048 354.716 258.525C353.671 259.006 352.44 258.972 351.023 258.422L345 256.084L345.652 254.406L351.432 256.649C352.451 257.045 353.327 257.092 354.059 256.79C354.804 256.492 355.347 255.902 355.69 255.02C356.037 254.125 356.035 253.301 355.683 252.55C355.326 251.811 354.613 251.234 353.544 250.819L347.895 248.626L348.553 246.93L358.771 250.895L358.112 252.592L356.658 252.027C357.05 252.566 357.278 253.176 357.342 253.859C357.401 254.554 357.295 255.25 357.025 255.946Z" fill="white"/>
<path d="M352.01 267.552C351.599 268.405 351.054 269.061 350.376 269.518C349.691 269.988 348.991 270.243 348.276 270.283L350.078 271.151L349.28 272.809L339.188 267.952C338.287 267.518 337.581 266.941 337.069 266.221C336.545 265.496 336.258 264.677 336.209 263.765C336.153 262.866 336.354 261.941 336.811 260.992C337.435 259.695 338.262 258.761 339.291 258.191C340.32 257.621 341.401 257.512 342.534 257.865L341.753 259.486C341.065 259.378 340.406 259.519 339.773 259.91C339.129 260.295 338.616 260.885 338.235 261.677C337.801 262.579 337.731 263.447 338.024 264.284C338.311 265.132 338.965 265.802 339.986 266.294L342.059 267.291C341.638 266.689 341.389 265.977 341.311 265.156C341.233 264.334 341.399 263.496 341.81 262.643C342.232 261.766 342.832 261.071 343.612 260.559C344.386 260.058 345.261 259.791 346.239 259.759C347.216 259.726 348.204 259.95 349.201 260.43C350.21 260.915 350.995 261.545 351.555 262.317C352.127 263.096 352.453 263.941 352.532 264.852C352.606 265.775 352.432 266.675 352.01 267.552ZM345.158 268.783C345.903 269.141 346.624 269.303 347.321 269.269C348.019 269.235 348.636 269.029 349.173 268.651C349.716 268.291 350.135 267.804 350.43 267.192C350.725 266.579 350.849 265.951 350.804 265.307C350.758 264.664 350.532 264.059 350.124 263.493C349.715 262.927 349.139 262.464 348.394 262.106C347.637 261.741 346.904 261.573 346.195 261.602C345.498 261.636 344.877 261.834 344.334 262.194C343.803 262.56 343.39 263.049 343.095 263.662C342.8 264.274 342.676 264.902 342.721 265.546C342.773 266.207 343.003 266.821 343.411 267.387C343.831 267.959 344.413 268.424 345.158 268.783Z" fill="white"/>
<path d="M247.801 363.815L246.469 349.363L248.368 348.618L255.483 357.879L254.512 346.207L256.385 345.45L265.115 357.021L263.309 357.729L256.161 347.837L257.352 360.067L255.453 360.812L248.17 351.016L249.625 363.099L247.801 363.815Z" fill="white"/>
<path d="M232.618 359.717C232.523 359.383 232.442 359.025 232.376 358.642L240.804 356.255C240.446 355.234 239.862 354.519 239.053 354.11C238.236 353.718 237.365 353.653 236.441 353.915C235.684 354.129 235.105 354.481 234.703 354.969C234.291 355.473 234.066 356.05 234.028 356.698L232.143 357.232C232.138 356.139 232.468 355.151 233.133 354.27C233.801 353.402 234.764 352.789 236.022 352.433C237.022 352.15 237.984 352.12 238.906 352.344C239.816 352.571 240.612 353.032 241.293 353.725C241.978 354.432 242.476 355.331 242.784 356.421C243.093 357.512 243.146 358.529 242.942 359.474C242.739 360.418 242.307 361.219 241.648 361.877C240.98 362.552 240.133 363.034 239.107 363.325C238.106 363.608 237.159 363.641 236.266 363.423C235.372 363.204 234.612 362.769 233.983 362.115C233.345 361.478 232.89 360.679 232.618 359.717ZM234.53 359.57C234.719 360.237 235.028 360.766 235.458 361.157C235.891 361.561 236.398 361.812 236.981 361.911C237.554 362.025 238.148 361.996 238.764 361.821C239.649 361.57 240.326 361.074 240.795 360.331C241.251 359.593 241.382 358.71 241.188 357.684L234.53 359.57Z" fill="white"/>
<path d="M228.821 363.684C228.584 364.399 228.155 365.03 227.531 365.578C226.907 366.126 226.145 366.491 225.243 366.674C224.276 366.87 223.361 366.817 222.497 366.516C221.633 366.215 220.895 365.691 220.281 364.945C219.67 364.212 219.253 363.296 219.031 362.199C218.811 361.114 218.837 360.102 219.109 359.163C219.381 358.223 219.862 357.439 220.551 356.81C221.226 356.183 222.041 355.773 222.995 355.58C223.923 355.392 224.781 355.429 225.568 355.691C226.343 355.955 226.97 356.366 227.45 356.922L227.049 354.942L228.833 354.58L231.772 369.085L229.988 369.447L228.821 363.684ZM220.854 361.829C221.018 362.64 221.324 363.312 221.773 363.847C222.221 364.382 222.758 364.749 223.384 364.949C223.996 365.151 224.635 365.185 225.302 365.05C225.955 364.918 226.53 364.631 227.025 364.191C227.511 363.766 227.861 363.212 228.076 362.529C228.281 361.862 228.303 361.129 228.141 360.332C227.977 359.522 227.67 358.843 227.218 358.295C226.757 357.763 226.218 357.389 225.603 357.173C224.978 356.974 224.339 356.94 223.685 357.072C223.019 357.207 222.443 357.487 221.958 357.912C221.462 358.353 221.112 358.907 220.907 359.574C220.704 360.254 220.687 361.006 220.854 361.829Z" fill="white"/>
<path d="M207.895 372.077C206.381 372.212 205.048 372.042 203.895 371.569C202.73 371.111 201.808 370.383 201.13 369.386C200.439 368.39 200.031 367.181 199.904 365.76C199.778 364.339 199.967 363.077 200.471 361.975C200.964 360.887 201.743 360.015 202.809 359.358C203.863 358.715 205.147 358.326 206.661 358.192L210.984 357.807L212.218 371.693L207.895 372.077ZM206.793 359.686C205.001 359.845 203.675 360.439 202.815 361.465C201.958 362.505 201.605 363.882 201.757 365.595C201.911 367.322 202.509 368.627 203.551 369.512C204.58 370.397 205.985 370.761 207.764 370.603L210.274 370.38L209.304 359.463L206.793 359.686Z" fill="white"/>
<path d="M186.331 364.934C186.328 364.587 186.345 364.22 186.382 363.833L195.142 363.766C195.067 362.686 194.694 361.842 194.022 361.234C193.338 360.639 192.515 360.346 191.555 360.353C190.769 360.359 190.117 360.544 189.6 360.908C189.069 361.286 188.7 361.782 188.491 362.397L186.531 362.412C186.816 361.356 187.396 360.492 188.271 359.819C189.146 359.158 190.237 358.823 191.544 358.813C192.584 358.805 193.519 359.031 194.349 359.492C195.166 359.952 195.811 360.607 196.284 361.457C196.757 362.32 196.999 363.318 197.007 364.451C197.016 365.585 196.797 366.58 196.35 367.436C195.904 368.293 195.275 368.951 194.465 369.411C193.642 369.884 192.698 370.125 191.631 370.133C190.591 370.141 189.669 369.921 188.866 369.474C188.062 369.027 187.444 368.405 187.011 367.608C186.565 366.825 186.338 365.934 186.331 364.934ZM188.214 365.299C188.219 365.992 188.377 366.585 188.687 367.076C188.998 367.58 189.421 367.957 189.956 368.206C190.478 368.468 191.059 368.597 191.699 368.592C192.619 368.585 193.403 368.286 194.052 367.694C194.688 367.103 195.048 366.286 195.133 365.246L188.214 365.299Z" fill="white"/>
<path d="M179.586 358.502C180.424 358.554 181.167 358.741 181.815 359.061C182.463 359.395 182.964 359.827 183.318 360.356C183.672 360.899 183.849 361.505 183.847 362.172L181.971 362.056C181.951 361.507 181.726 361.046 181.295 360.672C180.851 360.297 180.256 360.087 179.511 360.041C178.819 359.998 178.263 360.117 177.845 360.399C177.427 360.68 177.204 361.054 177.175 361.52C177.145 361.999 177.336 362.364 177.748 362.617C178.159 362.883 178.804 363.156 179.681 363.438C180.48 363.701 181.132 363.955 181.638 364.2C182.13 364.457 182.549 364.811 182.895 365.26C183.227 365.721 183.372 366.304 183.328 367.01C183.293 367.568 183.095 368.071 182.734 368.516C182.372 368.961 181.877 369.298 181.249 369.526C180.619 369.768 179.912 369.864 179.127 369.816C177.916 369.741 176.957 369.374 176.249 368.716C175.542 368.058 175.194 367.195 175.207 366.127L177.023 366.239C177.028 366.814 177.233 367.287 177.637 367.66C178.028 368.031 178.576 368.239 179.282 368.282C179.934 368.323 180.461 368.215 180.865 367.959C181.268 367.704 181.483 367.35 181.511 366.897C181.534 366.538 181.439 366.232 181.228 365.978C181.002 365.737 180.721 365.533 180.384 365.365C180.033 365.21 179.55 365.026 178.935 364.814C178.163 364.553 177.537 364.3 177.058 364.057C176.578 363.827 176.178 363.495 175.857 363.061C175.523 362.626 175.37 362.076 175.398 361.41C175.435 360.811 175.635 360.282 175.997 359.824C176.36 359.365 176.855 359.015 177.485 358.773C178.1 358.544 178.8 358.454 179.586 358.502Z" fill="white"/>
<path d="M170.363 370.685C170.708 370.723 170.986 370.873 171.199 371.138C171.412 371.402 171.5 371.707 171.462 372.052C171.425 372.396 171.274 372.675 171.01 372.888C170.745 373.1 170.441 373.188 170.096 373.151C169.765 373.115 169.499 372.965 169.3 372.702C169.087 372.438 168.999 372.133 169.036 371.789C169.074 371.444 169.225 371.165 169.489 370.953C169.74 370.738 170.032 370.649 170.363 370.685ZM169.68 368.821L170.861 357.925L172.67 358.121L171.489 369.017L169.68 368.821Z" fill="white"/>
<path d="M161.934 367.957C161 367.804 160.217 367.467 159.586 366.946C158.942 366.422 158.5 365.823 158.258 365.148L157.936 367.122L156.12 366.826L157.923 355.772C158.084 354.785 158.438 353.944 158.983 353.25C159.531 352.542 160.235 352.036 161.096 351.73C161.943 351.422 162.886 351.353 163.926 351.523C165.347 351.755 166.477 352.284 167.315 353.109C168.153 353.935 168.563 354.941 168.545 356.127L166.768 355.837C166.678 355.147 166.356 354.554 165.802 354.058C165.25 353.549 164.54 353.224 163.671 353.082C162.684 352.921 161.831 353.1 161.112 353.617C160.379 354.133 159.922 354.95 159.739 356.068L159.369 358.338C159.828 357.765 160.44 357.324 161.206 357.017C161.972 356.709 162.822 356.632 163.757 356.784C164.717 356.941 165.554 357.321 166.266 357.923C166.965 358.524 167.469 359.288 167.777 360.216C168.084 361.145 168.149 362.155 167.971 363.247C167.791 364.353 167.409 365.283 166.827 366.039C166.242 366.809 165.524 367.36 164.672 367.694C163.808 368.026 162.895 368.113 161.934 367.957ZM158.815 361.733C158.682 362.549 158.731 363.287 158.961 363.946C159.191 364.605 159.564 365.138 160.078 365.546C160.577 365.966 161.162 366.23 161.833 366.339C162.504 366.449 163.142 366.391 163.746 366.165C164.351 365.939 164.867 365.551 165.294 364.999C165.722 364.447 166.002 363.764 166.135 362.948C166.271 362.119 166.224 361.368 165.996 360.696C165.766 360.037 165.401 359.498 164.902 359.079C164.401 358.673 163.815 358.415 163.144 358.306C162.473 358.196 161.835 358.254 161.231 358.48C160.611 358.717 160.088 359.111 159.66 359.662C159.23 360.227 158.949 360.918 158.815 361.733Z" fill="white"/>
<path d="M147.37 365.056C146.074 364.742 145.12 364.092 144.509 363.107C143.894 362.135 143.766 360.91 144.124 359.433L145.648 353.155L147.397 353.579L145.935 359.604C145.677 360.667 145.746 361.541 146.142 362.227C146.535 362.926 147.192 363.387 148.112 363.611C149.044 363.837 149.86 363.726 150.559 363.278C151.245 362.827 151.723 362.045 151.993 360.93L153.422 355.041L155.191 355.47L152.606 366.121L150.838 365.692L151.205 364.176C150.724 364.635 150.148 364.942 149.48 365.095C148.799 365.245 148.095 365.233 147.37 365.056Z" fill="white"/>
<path d="M138.155 364.193C138.487 364.292 138.734 364.492 138.895 364.79C139.056 365.089 139.086 365.405 138.987 365.737C138.887 366.069 138.688 366.315 138.389 366.476C138.091 366.637 137.775 366.668 137.443 366.569C137.124 366.473 136.89 366.278 136.742 365.983C136.581 365.684 136.55 365.368 136.65 365.036C136.749 364.704 136.948 364.458 137.247 364.297C137.533 364.132 137.836 364.097 138.155 364.193ZM137.823 362.235L140.969 351.737L142.713 352.259L139.566 362.758L137.823 362.235Z" fill="white"/>
<path d="M129.279 359.607C128.024 359.158 127.144 358.411 126.64 357.366C126.132 356.335 126.134 355.103 126.647 353.672L128.825 347.59L130.519 348.197L128.429 354.034C128.06 355.064 128.036 355.94 128.358 356.664C128.675 357.401 129.279 357.929 130.17 358.248C131.074 358.572 131.897 358.548 132.639 358.176C133.368 357.8 133.926 357.073 134.313 355.993L136.356 350.288L138.07 350.902L134.374 361.22L132.661 360.606L133.187 359.138C132.659 359.543 132.055 359.787 131.374 359.869C130.68 359.946 129.982 359.859 129.279 359.607Z" fill="white"/>
<path d="M117.484 354.857C116.62 354.469 115.951 353.941 115.476 353.274C114.989 352.602 114.716 351.909 114.657 351.196L113.836 353.02L112.158 352.265L116.751 342.05C117.161 341.138 117.719 340.417 118.425 339.886C119.137 339.344 119.948 339.036 120.858 338.963C121.756 338.884 122.685 339.061 123.646 339.493C124.959 340.083 125.914 340.885 126.511 341.899C127.108 342.913 127.245 343.991 126.922 345.132L125.28 344.394C125.371 343.704 125.213 343.048 124.805 342.426C124.403 341.792 123.801 341.295 122.998 340.934C122.086 340.524 121.216 340.476 120.387 340.79C119.547 341.1 118.894 341.771 118.429 342.805L117.486 344.902C118.077 344.466 118.782 344.199 119.601 344.099C120.421 344 121.262 344.144 122.126 344.532C123.013 344.932 123.724 345.514 124.257 346.28C124.777 347.04 125.067 347.909 125.125 348.885C125.183 349.861 124.985 350.854 124.531 351.863C124.072 352.885 123.463 353.686 122.705 354.266C121.942 354.858 121.106 355.206 120.197 355.309C119.276 355.407 118.372 355.256 117.484 354.857ZM116.075 348.04C115.736 348.794 115.593 349.519 115.646 350.215C115.698 350.911 115.92 351.523 116.312 352.049C116.686 352.583 117.183 352.989 117.803 353.268C118.424 353.547 119.055 353.655 119.697 353.593C120.339 353.531 120.937 353.288 121.493 352.866C122.048 352.443 122.496 351.855 122.835 351.101C123.179 350.335 123.328 349.597 123.281 348.889C123.228 348.193 123.015 347.578 122.641 347.045C122.261 346.523 121.762 346.123 121.141 345.844C120.521 345.565 119.89 345.457 119.248 345.519C118.588 345.588 117.981 345.834 117.425 346.257C116.864 346.691 116.414 347.286 116.075 348.04Z" fill="white"/>
<path d="M34.9414 259.526L32.9902 255.053L34.3468 254.461L37.0257 260.602L24.2485 266.176L23.5208 264.508L34.9414 259.526Z" fill="white"/>
<path d="M32.1734 248.185C32.5232 249.15 32.6219 250.107 32.4693 251.056C32.3123 251.992 31.9144 252.832 31.2757 253.574C30.6199 254.308 29.7592 254.868 28.6937 255.254C27.6407 255.635 26.6313 255.746 25.6655 255.586C24.6826 255.417 23.8349 255.015 23.1225 254.38C22.3976 253.749 21.8579 252.945 21.5035 251.967C21.1492 250.989 21.0482 250.026 21.2008 249.077C21.3407 248.133 21.7301 247.29 22.3688 246.548C23.003 245.793 23.8528 245.223 24.9183 244.837C25.9838 244.451 27.0103 244.348 27.9978 244.529C28.9681 244.702 29.8181 245.11 30.5476 245.754C31.2771 246.397 31.819 247.207 32.1734 248.185ZM30.6691 248.73C30.4465 248.116 30.0934 247.592 29.6097 247.157C29.126 246.723 28.5368 246.447 27.8421 246.33C27.1428 246.201 26.3794 246.286 25.5521 246.586C24.7248 246.885 24.0818 247.303 23.6233 247.838C23.1648 248.373 22.8931 248.953 22.8081 249.58C22.7106 250.211 22.7732 250.833 22.9958 251.448C23.2229 252.074 23.5761 252.599 24.0552 253.021C24.5173 253.435 25.0934 253.694 25.7836 253.798C26.4738 253.903 27.2326 253.805 28.0599 253.505C28.8998 253.201 29.5535 252.794 30.0211 252.284C30.4842 251.761 30.7667 251.191 30.8688 250.573C30.9583 249.959 30.8917 249.345 30.6691 248.73Z" fill="white"/>
<path d="M17.4898 239.457C17.2388 238.544 17.2188 237.692 17.4299 236.901C17.6375 236.097 17.9974 235.445 18.5097 234.945L16.5813 235.475L16.0933 233.701L26.8922 230.73C27.8564 230.465 28.7679 230.436 29.6267 230.642C30.4983 230.845 31.2524 231.274 31.8888 231.928C32.5217 232.57 32.9778 233.399 33.2572 234.414C33.6391 235.803 33.6295 237.05 33.2285 238.156C32.8274 239.262 32.0843 240.054 30.9989 240.532L30.5215 238.797C31.1113 238.427 31.5159 237.887 31.7353 237.177C31.9677 236.463 31.9671 235.682 31.7337 234.833C31.4685 233.869 30.9507 233.168 30.1803 232.73C29.4063 232.279 28.473 232.204 27.3802 232.505L25.1626 233.115C25.8751 233.292 26.5308 233.665 27.1296 234.233C27.7284 234.801 28.1534 235.542 28.4045 236.454C28.6626 237.393 28.6664 238.311 28.4157 239.21C28.1615 240.096 27.6768 240.872 26.9614 241.539C26.246 242.206 25.3547 242.686 24.2877 242.98C23.2078 243.277 22.2028 243.318 21.2727 243.104C20.3296 242.893 19.5288 242.47 18.8703 241.836C18.2081 241.188 17.748 240.395 17.4898 239.457ZM21.8458 234.027C21.0487 234.246 20.3987 234.598 19.8957 235.082C19.3928 235.566 19.063 236.127 18.9066 236.765C18.7337 237.393 18.7374 238.035 18.9178 238.691C19.0981 239.346 19.4168 239.902 19.8739 240.357C20.331 240.812 20.8994 241.119 21.5792 241.277C22.2589 241.436 22.9973 241.406 23.7944 241.187C24.6043 240.964 25.2672 240.609 25.783 240.121C26.286 239.637 26.6239 239.081 26.7968 238.452C26.9568 237.828 26.9466 237.187 26.7663 236.532C26.5859 235.876 26.2672 235.321 25.8102 234.866C25.3367 234.401 24.7601 234.09 24.0803 233.931C23.3877 233.776 22.6428 233.808 21.8458 234.027Z" fill="white"/>
<path d="M25.2928 223.342C25.4891 224.35 25.4384 225.311 25.1409 226.224C24.8408 227.125 24.3178 227.893 23.5719 228.527C22.8104 229.15 21.8735 229.571 20.761 229.787C19.6617 230.001 18.6473 229.954 17.718 229.646C16.773 229.328 15.9978 228.799 15.3922 228.061C14.7736 227.326 14.365 226.448 14.1662 225.427C13.9675 224.406 14.0168 223.439 14.3144 222.525C14.5988 221.614 15.114 220.842 15.8598 220.207C16.6032 219.56 17.531 219.128 18.6435 218.911C19.7559 218.695 20.7859 218.752 21.7334 219.084C22.6653 219.405 23.4418 219.94 24.063 220.688C24.6841 221.437 25.0941 222.321 25.2928 223.342ZM23.7223 223.648C23.5975 223.007 23.3298 222.434 22.9192 221.93C22.5086 221.426 21.9692 221.062 21.3009 220.839C20.63 220.603 19.8627 220.569 18.999 220.737C18.1352 220.905 17.4354 221.218 16.8996 221.676C16.3638 222.133 16.0055 222.665 15.8246 223.27C15.6306 223.879 15.596 224.504 15.7209 225.145C15.8483 225.799 16.116 226.372 16.5241 226.863C16.9165 227.344 17.4455 227.689 18.1113 227.899C18.777 228.109 19.5418 228.13 20.4055 227.961C21.2824 227.791 21.9913 227.49 22.5322 227.058C23.0705 226.614 23.4379 226.094 23.6345 225.499C23.8179 224.906 23.8472 224.289 23.7223 223.648Z" fill="white"/>
<path d="M8.79367 207.524C8.67068 206.009 8.85015 204.677 9.33206 203.528C9.79961 202.366 10.5346 201.45 11.537 200.78C12.5383 200.097 13.75 199.698 15.172 199.582C16.594 199.467 17.8542 199.665 18.9526 200.178C20.0367 200.679 20.9031 201.465 21.5519 202.536C22.1863 203.594 22.565 204.881 22.688 206.396L23.0391 210.722L9.14481 211.85L8.79367 207.524ZM21.1929 206.518C21.0472 204.724 20.4643 203.393 19.4442 202.526C18.4107 201.66 17.0368 201.297 15.3225 201.436C13.5948 201.576 12.2848 202.164 11.3923 203.2C10.4987 204.222 10.1243 205.624 10.2688 207.405L10.4727 209.916L21.3968 209.029L21.1929 206.518Z" fill="white"/>
<path d="M16.1 185.96C16.4467 185.96 16.8133 185.98 17.2 186.02V194.78C18.28 194.713 19.1267 194.347 19.74 193.68C20.34 193 20.64 192.18 20.64 191.22C20.64 190.433 20.46 189.78 20.1 189.26C19.7267 188.727 19.2333 188.353 18.62 188.14V186.18C19.6733 186.473 20.5333 187.06 21.2 187.94C21.8533 188.82 22.18 189.913 22.18 191.22C22.18 192.26 21.9467 193.193 21.48 194.02C21.0133 194.833 20.3533 195.473 19.5 195.94C18.6333 196.407 17.6333 196.64 16.5 196.64C15.3667 196.64 14.3733 196.413 13.52 195.96C12.6667 195.507 12.0133 194.873 11.56 194.06C11.0933 193.233 10.86 192.287 10.86 191.22C10.86 190.18 11.0867 189.26 11.54 188.46C11.9933 187.66 12.62 187.047 13.42 186.62C14.2067 186.18 15.1 185.96 16.1 185.96ZM15.72 187.84C15.0267 187.84 14.4333 187.993 13.94 188.3C13.4333 188.607 13.0533 189.027 12.8 189.56C12.5333 190.08 12.4 190.66 12.4 191.3C12.4 192.22 12.6933 193.007 13.28 193.66C13.8667 194.3 14.68 194.667 15.72 194.76V187.84Z" fill="white"/>
<path d="M22.5837 179.261C22.5254 180.099 22.3334 180.84 22.0079 181.486C21.669 182.131 21.2334 182.628 20.7011 182.979C20.1556 183.329 19.5489 183.5 18.881 183.494L19.0115 181.618C19.5605 181.603 20.0237 181.381 20.401 180.953C20.7792 180.512 20.9942 179.919 21.046 179.174C21.0941 178.482 20.9791 177.926 20.7009 177.506C20.4227 177.085 20.0509 176.859 19.5853 176.827C19.1065 176.793 18.7392 176.982 18.4835 177.392C18.2144 177.801 17.9359 178.443 17.6478 179.318C17.3785 180.115 17.1194 180.765 16.8705 181.269C16.6093 181.759 16.2529 182.175 15.8013 182.518C15.3374 182.847 14.753 182.986 14.048 182.937C13.4893 182.898 12.9888 182.697 12.5464 182.332C12.104 181.967 11.771 181.469 11.5476 180.839C11.3108 180.207 11.2197 179.499 11.2743 178.715C11.3585 177.504 11.7324 176.548 12.3961 175.846C13.0597 175.143 13.9255 174.803 14.9933 174.823L14.867 176.639C14.2922 176.639 13.8172 176.84 13.4417 177.241C13.0672 177.63 12.8555 178.176 12.8064 178.881C12.7611 179.533 12.8647 180.062 13.1172 180.467C13.3697 180.872 13.722 181.09 14.1743 181.122C14.5334 181.147 14.8405 181.054 15.0957 180.845C15.3385 180.621 15.545 180.342 15.7154 180.006C15.8734 179.656 16.0606 179.175 16.277 178.561C16.5444 177.791 16.8016 177.168 17.0487 176.69C17.2824 176.212 17.6175 175.814 18.0539 175.497C18.4912 175.167 19.0428 175.018 19.7088 175.051C20.3074 175.093 20.8345 175.296 21.2902 175.662C21.7459 176.028 22.0922 176.527 22.3289 177.158C22.5533 177.775 22.6382 178.476 22.5837 179.261Z" fill="white"/>
<path d="M10.3871 170.707C10.3484 171.052 10.1964 171.33 9.93114 171.542C9.66586 171.753 9.36097 171.84 9.01647 171.801C8.67197 171.763 8.39385 171.611 8.18212 171.345C7.97039 171.08 7.88386 170.775 7.92254 170.431C7.95972 170.099 8.11021 169.835 8.37399 169.636C8.63927 169.424 8.94416 169.338 9.28866 169.377C9.63316 169.415 9.91128 169.567 10.123 169.832C10.3362 170.084 10.4242 170.376 10.3871 170.707ZM12.2541 170.031L23.1457 171.254L22.9427 173.063L12.0511 171.84L12.2541 170.031Z" fill="white"/>
<path d="M13.2704 161.531C13.43 160.597 13.773 159.817 14.2995 159.191C14.8283 158.551 15.4307 158.112 16.1069 157.876L14.1355 157.539L14.4456 155.726L25.4854 157.613C26.4711 157.782 27.3091 158.141 27.9995 158.692C28.703 159.246 29.2042 159.953 29.503 160.816C29.8042 161.666 29.8659 162.61 29.6884 163.648C29.4457 165.067 28.9084 166.193 28.0763 167.025C27.2442 167.856 26.2353 168.259 25.0495 168.232L25.3529 166.457C26.0437 166.373 26.6391 166.055 27.139 165.505C27.652 164.957 27.9827 164.249 28.131 163.382C28.2996 162.396 28.1278 161.541 27.6157 160.818C27.1059 160.082 26.2924 159.618 25.1753 159.427L22.9082 159.039C23.4783 159.502 23.9142 160.118 24.2156 160.886C24.5171 161.654 24.588 162.505 24.4285 163.438C24.2644 164.398 23.8784 165.231 23.2705 165.939C22.6648 166.634 21.8966 167.131 20.9659 167.432C20.0352 167.733 19.0245 167.79 17.9336 167.603C16.8297 167.415 15.9019 167.026 15.1503 166.438C14.3856 165.847 13.8395 165.125 13.5121 164.271C13.1869 163.403 13.1064 162.49 13.2704 161.531ZM19.5174 158.459C18.7025 158.32 17.9647 158.363 17.304 158.588C16.6433 158.813 16.1069 159.182 15.6948 159.693C15.2719 160.189 15.0031 160.772 14.8885 161.442C14.7739 162.112 14.8271 162.75 15.0481 163.356C15.2692 163.962 15.6539 164.481 16.2023 164.913C16.7507 165.345 17.4323 165.631 18.2471 165.77C19.0751 165.912 19.826 165.871 20.4999 165.648C21.1606 165.423 21.7025 165.062 22.1254 164.566C22.5352 164.068 22.7974 163.484 22.9121 162.814C23.0267 162.144 22.9734 161.506 22.7524 160.9C22.5205 160.278 22.1303 159.752 21.5819 159.32C21.0204 158.886 20.3322 158.599 19.5174 158.459Z" fill="white"/>
<path d="M16.2873 146.984C16.6116 145.691 17.2687 144.742 18.2586 144.138C19.2356 143.531 20.4613 143.412 21.9357 143.782L28.2018 145.353L27.764 147.099L21.7502 145.591C20.6897 145.325 19.8149 145.388 19.1258 145.779C18.4238 146.166 17.9577 146.819 17.7275 147.737C17.494 148.668 17.5986 149.485 18.0411 150.187C18.4869 150.876 19.2659 151.36 20.3782 151.639L26.2563 153.113L25.8137 154.878L15.1827 152.213L15.6253 150.447L17.1385 150.827C16.6828 150.341 16.3808 149.764 16.2325 149.094C16.0875 148.412 16.1057 147.709 16.2873 146.984Z" fill="white"/>
<path d="M17.2272 137.772C17.1252 138.103 16.9242 138.348 16.6242 138.507C16.3242 138.666 16.0085 138.694 15.6772 138.592C15.3459 138.49 15.1009 138.289 14.9421 137.989C14.7834 137.689 14.755 137.373 14.8571 137.042C14.9552 136.724 15.1522 136.491 15.4483 136.345C15.7483 136.187 16.064 136.158 16.3953 136.26C16.7266 136.362 16.9716 136.563 17.1304 136.863C17.293 137.15 17.3253 137.453 17.2272 137.772ZM19.1874 137.455L29.662 140.68L29.1264 142.42L18.6518 139.194L19.1874 137.455Z" fill="white"/>
<path d="M21.5795 129.762C22.0339 128.509 22.7842 127.632 23.8305 127.132C24.8643 126.627 26.0957 126.634 27.5248 127.152L33.5982 129.353L32.9849 131.045L27.1559 128.933C26.128 128.56 25.2514 128.533 24.5261 128.852C23.7883 129.166 23.2581 129.768 22.9355 130.658C22.6084 131.561 22.6292 132.384 22.998 133.127C23.3712 133.858 24.0969 134.419 25.1749 134.81L30.8723 136.874L30.2522 138.585L19.948 134.851L20.5682 133.14L22.0348 133.671C21.631 133.142 21.3894 132.537 21.3101 131.856C21.2353 131.162 21.3251 130.464 21.5795 129.762Z" fill="white"/>
<path d="M26.3528 118.01C26.7442 117.148 27.2742 116.481 27.9427 116.008C28.6168 115.523 29.3107 115.253 30.0247 115.196L28.2036 114.369L28.9644 112.694L39.1622 117.325C40.0728 117.738 40.7919 118.299 41.3196 119.007C41.8595 119.721 42.1644 120.533 42.2342 121.443C42.3096 122.341 42.1295 123.27 41.694 124.229C41.0987 125.54 40.2929 126.492 39.2769 127.085C38.2608 127.678 37.1827 127.811 36.0427 127.484L36.7869 125.845C37.4767 125.938 38.1332 125.783 38.7565 125.377C39.3919 124.978 39.8916 124.377 40.2554 123.576C40.6689 122.665 40.7198 121.795 40.4083 120.966C40.1024 120.124 39.4334 119.468 38.4015 119L36.3073 118.049C36.7412 118.641 37.0063 119.347 37.1026 120.167C37.1989 120.987 37.0514 121.828 36.66 122.69C36.2575 123.576 35.6724 124.284 34.9046 124.814C34.1423 125.332 33.2728 125.618 32.2963 125.673C31.3197 125.727 30.3276 125.526 29.32 125.068C28.3002 124.605 27.5016 123.993 26.9242 123.233C26.3347 122.468 25.9901 121.63 25.8904 120.721C25.7962 119.8 25.9504 118.896 26.3528 118.01ZM33.1751 116.627C32.4224 116.285 31.6979 116.139 31.0016 116.189C30.3053 116.239 29.693 116.459 29.1646 116.848C28.6295 117.22 28.2214 117.716 27.9403 118.335C27.6591 118.954 27.5485 119.585 27.6083 120.227C27.6681 120.869 27.9084 121.469 28.329 122.026C28.7497 122.583 29.3363 123.033 30.089 123.374C30.8539 123.722 31.5905 123.873 32.2989 123.829C32.9952 123.779 33.6108 123.568 34.1459 123.196C34.6688 122.818 35.0708 122.32 35.352 121.701C35.6331 121.082 35.7438 120.451 35.6839 119.809C35.6175 119.149 35.3739 118.54 34.9533 117.983C34.5205 117.421 33.9278 116.968 33.1751 116.627Z" fill="white"/>
<path d="M288 46C314.448 64.3814 327.057 78.5366 345.5 111" stroke="#5BB653" stroke-width="5"/>
<path d="M342 276C321.139 311.504 303.84 327.471 263 349" stroke="#5BB653" stroke-width="5"/>
</svg>
